<?xml version="1.0" encoding="UTF-8"?>
<!DOCTYPE svg PUBLIC "-//W3C//DTD SVG 1.1//EN" "http://www.w3.org/Graphics/SVG/1.1/DTD/svg11.dtd">
<svg xmlns="http://www.w3.org/2000/svg" version="1.1" width="1468px" height="284px" style="shape-rendering:geometricPrecision; text-rendering:geometricPrecision; image-rendering:optimizeQuality; fill-rule:evenodd; clip-rule:evenodd" xmlns:xlink="http://www.w3.org/1999/xlink">
<g><path style="opacity:0.004" fill="#00fffe" d="M 115.5,-0.5 C 116.833,-0.5 118.167,-0.5 119.5,-0.5C 119.5,0.833333 119.5,2.16667 119.5,3.5C 118.167,3.5 116.833,3.5 115.5,3.5C 115.5,2.16667 115.5,0.833333 115.5,-0.5 Z"/></g>
<g><path style="opacity:0.949" fill="#4598ff" d="M 119.5,-0.5 C 139.5,-0.5 159.5,-0.5 179.5,-0.5C 179.5,0.833333 179.5,2.16667 179.5,3.5C 183.5,3.5 187.5,3.5 191.5,3.5C 191.5,4.83333 191.5,6.16667 191.5,7.5C 195.5,7.5 199.5,7.5 203.5,7.5C 203.5,8.83333 203.5,10.1667 203.5,11.5C 206.167,11.5 208.833,11.5 211.5,11.5C 211.5,12.8333 211.5,14.1667 211.5,15.5C 214.167,15.5 216.833,15.5 219.5,15.5C 219.5,16.8333 219.5,18.1667 219.5,19.5C 220.833,19.5 222.167,19.5 223.5,19.5C 223.5,20.8333 223.5,22.1667 223.5,23.5C 226.167,23.5 228.833,23.5 231.5,23.5C 231.5,24.8333 231.5,26.1667 231.5,27.5C 232.833,27.5 234.167,27.5 235.5,27.5C 235.5,28.8333 235.5,30.1667 235.5,31.5C 238.167,31.5 240.833,31.5 243.5,31.5C 243.5,32.8333 243.5,34.1667 243.5,35.5C 243.5,36.8333 243.5,38.1667 243.5,39.5C 244.833,39.5 246.167,39.5 247.5,39.5C 248.833,39.5 250.167,39.5 251.5,39.5C 251.5,40.8333 251.5,42.1667 251.5,43.5C 252.833,43.5 254.167,43.5 255.5,43.5C 255.5,44.8333 255.5,46.1667 255.5,47.5C 256.833,47.5 258.167,47.5 259.5,47.5C 259.5,50.1667 259.5,52.8333 259.5,55.5C 260.833,55.5 262.167,55.5 263.5,55.5C 263.5,56.8333 263.5,58.1667 263.5,59.5C 264.833,59.5 266.167,59.5 267.5,59.5C 267.5,60.8333 267.5,62.1667 267.5,63.5C 268.833,63.5 270.167,63.5 271.5,63.5C 271.5,66.1667 271.5,68.8333 271.5,71.5C 272.833,71.5 274.167,71.5 275.5,71.5C 275.5,74.1667 275.5,76.8333 275.5,79.5C 276.833,79.5 278.167,79.5 279.5,79.5C 279.5,82.1667 279.5,84.8333 279.5,87.5C 280.833,87.5 282.167,87.5 283.5,87.5C 283.5,90.1667 283.5,92.8333 283.5,95.5C 283.5,96.8333 283.5,98.1667 283.5,99.5C 284.833,99.5 286.167,99.5 287.5,99.5C 287.5,103.5 287.5,107.5 287.5,111.5C 288.833,111.5 290.167,111.5 291.5,111.5C 291.5,127.5 291.5,143.5 291.5,159.5C 290.167,159.5 288.833,159.5 287.5,159.5C 287.5,160.833 287.5,162.167 287.5,163.5C 286.167,163.5 284.833,163.5 283.5,163.5C 283.5,164.833 283.5,166.167 283.5,167.5C 282.167,167.5 280.833,167.5 279.5,167.5C 279.5,168.833 279.5,170.167 279.5,171.5C 275.5,171.5 271.5,171.5 267.5,171.5C 267.5,172.833 267.5,174.167 267.5,175.5C 259.5,175.5 251.5,175.5 243.5,175.5C 243.5,174.167 243.5,172.833 243.5,171.5C 242.167,171.5 240.833,171.5 239.5,171.5C 238.167,171.5 236.833,171.5 235.5,171.5C 223.5,171.5 211.5,171.5 199.5,171.5C 198.167,171.5 196.833,171.5 195.5,171.5C 195.5,172.833 195.5,174.167 195.5,175.5C 195.5,176.833 195.5,178.167 195.5,179.5C 194.167,179.5 192.833,179.5 191.5,179.5C 191.5,180.833 191.5,182.167 191.5,183.5C 190.167,183.5 188.833,183.5 187.5,183.5C 187.5,184.833 187.5,186.167 187.5,187.5C 186.167,187.5 184.833,187.5 183.5,187.5C 183.5,188.833 183.5,190.167 183.5,191.5C 180.833,191.5 178.167,191.5 175.5,191.5C 175.5,192.833 175.5,194.167 175.5,195.5C 172.833,195.5 170.167,195.5 167.5,195.5C 167.5,196.833 167.5,198.167 167.5,199.5C 154.167,199.5 140.833,199.5 127.5,199.5C 127.5,198.167 127.5,196.833 127.5,195.5C 124.833,195.5 122.167,195.5 119.5,195.5C 119.5,194.167 119.5,192.833 119.5,191.5C 118.167,191.5 116.833,191.5 115.5,191.5C 115.5,190.167 115.5,188.833 115.5,187.5C 112.833,187.5 110.167,187.5 107.5,187.5C 107.5,186.167 107.5,184.833 107.5,183.5C 106.167,183.5 104.833,183.5 103.5,183.5C 103.5,180.833 103.5,178.167 103.5,175.5C 102.167,175.5 100.833,175.5 99.5,175.5C 99.5,174.167 99.5,172.833 99.5,171.5C 98.1667,171.5 96.8333,171.5 95.5,171.5C 95.5,168.833 95.5,166.167 95.5,163.5C 94.1667,163.5 92.8333,163.5 91.5,163.5C 91.5,150.167 91.5,136.833 91.5,123.5C 92.8333,123.5 94.1667,123.5 95.5,123.5C 95.5,120.833 95.5,118.167 95.5,115.5C 96.8333,115.5 98.1667,115.5 99.5,115.5C 99.5,114.167 99.5,112.833 99.5,111.5C 100.833,111.5 102.167,111.5 103.5,111.5C 103.5,108.833 103.5,106.167 103.5,103.5C 104.833,103.5 106.167,103.5 107.5,103.5C 107.5,102.167 107.5,100.833 107.5,99.5C 108.833,99.5 110.167,99.5 111.5,99.5C 111.5,98.1667 111.5,96.8333 111.5,95.5C 114.167,95.5 116.833,95.5 119.5,95.5C 119.5,94.1667 119.5,92.8333 119.5,91.5C 122.167,91.5 124.833,91.5 127.5,91.5C 127.5,90.1667 127.5,88.8333 127.5,87.5C 131.5,87.5 135.5,87.5 139.5,87.5C 139.5,86.1667 139.5,84.8333 139.5,83.5C 144.833,83.5 150.167,83.5 155.5,83.5C 155.5,84.8333 155.5,86.1667 155.5,87.5C 160.833,87.5 166.167,87.5 171.5,87.5C 171.5,88.8333 171.5,90.1667 171.5,91.5C 172.833,91.5 174.167,91.5 175.5,91.5C 175.5,92.8333 175.5,94.1667 175.5,95.5C 178.167,95.5 180.833,95.5 183.5,95.5C 183.5,96.8333 183.5,98.1667 183.5,99.5C 184.833,99.5 186.167,99.5 187.5,99.5C 187.5,100.833 187.5,102.167 187.5,103.5C 188.833,103.5 190.167,103.5 191.5,103.5C 191.5,104.833 191.5,106.167 191.5,107.5C 192.833,107.5 194.167,107.5 195.5,107.5C 195.5,108.833 195.5,110.167 195.5,111.5C 196.833,111.5 198.167,111.5 199.5,111.5C 199.5,112.833 199.5,114.167 199.5,115.5C 210.167,115.5 220.833,115.5 231.5,115.5C 231.5,114.167 231.5,112.833 231.5,111.5C 230.167,111.5 228.833,111.5 227.5,111.5C 227.5,108.833 227.5,106.167 227.5,103.5C 226.167,103.5 224.833,103.5 223.5,103.5C 223.5,100.833 223.5,98.1667 223.5,95.5C 222.167,95.5 220.833,95.5 219.5,95.5C 219.5,94.1667 219.5,92.8333 219.5,91.5C 218.167,91.5 216.833,91.5 215.5,91.5C 215.5,90.1667 215.5,88.8333 215.5,87.5C 215.5,86.1667 215.5,84.8333 215.5,83.5C 214.167,83.5 212.833,83.5 211.5,83.5C 211.5,82.1667 211.5,80.8333 211.5,79.5C 210.167,79.5 208.833,79.5 207.5,79.5C 206.167,79.5 204.833,79.5 203.5,79.5C 203.5,78.1667 203.5,76.8333 203.5,75.5C 202.167,75.5 200.833,75.5 199.5,75.5C 199.5,74.1667 199.5,72.8333 199.5,71.5C 198.167,71.5 196.833,71.5 195.5,71.5C 195.5,70.1667 195.5,68.8333 195.5,67.5C 192.833,67.5 190.167,67.5 187.5,67.5C 187.5,66.1667 187.5,64.8333 187.5,63.5C 183.5,63.5 179.5,63.5 175.5,63.5C 175.5,62.1667 175.5,60.8333 175.5,59.5C 170.167,59.5 164.833,59.5 159.5,59.5C 159.5,58.1667 159.5,56.8333 159.5,55.5C 151.5,55.5 143.5,55.5 135.5,55.5C 135.5,56.8333 135.5,58.1667 135.5,59.5C 130.167,59.5 124.833,59.5 119.5,59.5C 119.5,60.8333 119.5,62.1667 119.5,63.5C 115.5,63.5 111.5,63.5 107.5,63.5C 107.5,64.8333 107.5,66.1667 107.5,67.5C 106.167,67.5 104.833,67.5 103.5,67.5C 102.167,67.5 100.833,67.5 99.5,67.5C 99.5,68.8333 99.5,70.1667 99.5,71.5C 98.1667,71.5 96.8333,71.5 95.5,71.5C 95.5,72.8333 95.5,74.1667 95.5,75.5C 94.1667,75.5 92.8333,75.5 91.5,75.5C 91.5,76.8333 91.5,78.1667 91.5,79.5C 90.1667,79.5 88.8333,79.5 87.5,79.5C 87.5,80.8333 87.5,82.1667 87.5,83.5C 86.1667,83.5 84.8333,83.5 83.5,83.5C 83.5,84.8333 83.5,86.1667 83.5,87.5C 82.1667,87.5 80.8333,87.5 79.5,87.5C 79.5,88.8333 79.5,90.1667 79.5,91.5C 78.1667,91.5 76.8333,91.5 75.5,91.5C 75.5,92.8333 75.5,94.1667 75.5,95.5C 74.1667,95.5 72.8333,95.5 71.5,95.5C 71.5,98.1667 71.5,100.833 71.5,103.5C 70.1667,103.5 68.8333,103.5 67.5,103.5C 67.5,107.5 67.5,111.5 67.5,115.5C 66.1667,115.5 64.8333,115.5 63.5,115.5C 63.5,120.833 63.5,126.167 63.5,131.5C 62.1667,131.5 60.8333,131.5 59.5,131.5C 59.5,132.833 59.5,134.167 59.5,135.5C 59.5,140.833 59.5,146.167 59.5,151.5C 60.8333,151.5 62.1667,151.5 63.5,151.5C 63.5,158.167 63.5,164.833 63.5,171.5C 64.8333,171.5 66.1667,171.5 67.5,171.5C 67.5,175.5 67.5,179.5 67.5,183.5C 68.8333,183.5 70.1667,183.5 71.5,183.5C 71.5,184.833 71.5,186.167 71.5,187.5C 72.8333,187.5 74.1667,187.5 75.5,187.5C 75.5,190.167 75.5,192.833 75.5,195.5C 76.8333,195.5 78.1667,195.5 79.5,195.5C 79.5,196.833 79.5,198.167 79.5,199.5C 80.8333,199.5 82.1667,199.5 83.5,199.5C 83.5,200.833 83.5,202.167 83.5,203.5C 84.8333,203.5 86.1667,203.5 87.5,203.5C 87.5,204.833 87.5,206.167 87.5,207.5C 88.8333,207.5 90.1667,207.5 91.5,207.5C 91.5,208.833 91.5,210.167 91.5,211.5C 92.8333,211.5 94.1667,211.5 95.5,211.5C 95.5,212.833 95.5,214.167 95.5,215.5C 98.1667,215.5 100.833,215.5 103.5,215.5C 103.5,216.833 103.5,218.167 103.5,219.5C 106.167,219.5 108.833,219.5 111.5,219.5C 111.5,220.833 111.5,222.167 111.5,223.5C 114.167,223.5 116.833,223.5 119.5,223.5C 119.5,224.833 119.5,226.167 119.5,227.5C 126.167,227.5 132.833,227.5 139.5,227.5C 139.5,228.833 139.5,230.167 139.5,231.5C 140.833,231.5 142.167,231.5 143.5,231.5C 146.167,231.5 148.833,231.5 151.5,231.5C 152.833,231.5 154.167,231.5 155.5,231.5C 155.5,230.167 155.5,228.833 155.5,227.5C 162.167,227.5 168.833,227.5 175.5,227.5C 175.5,226.167 175.5,224.833 175.5,223.5C 178.167,223.5 180.833,223.5 183.5,223.5C 184.833,223.5 186.167,223.5 187.5,223.5C 187.5,222.167 187.5,220.833 187.5,219.5C 188.833,219.5 190.167,219.5 191.5,219.5C 191.5,218.167 191.5,216.833 191.5,215.5C 194.167,215.5 196.833,215.5 199.5,215.5C 199.5,214.167 199.5,212.833 199.5,211.5C 200.833,211.5 202.167,211.5 203.5,211.5C 203.5,210.167 203.5,208.833 203.5,207.5C 204.833,207.5 206.167,207.5 207.5,207.5C 207.5,206.167 207.5,204.833 207.5,203.5C 210.167,203.5 212.833,203.5 215.5,203.5C 215.5,202.167 215.5,200.833 215.5,199.5C 223.5,199.5 231.5,199.5 239.5,199.5C 239.5,200.833 239.5,202.167 239.5,203.5C 242.167,203.5 244.833,203.5 247.5,203.5C 247.5,204.833 247.5,206.167 247.5,207.5C 248.833,207.5 250.167,207.5 251.5,207.5C 251.5,208.833 251.5,210.167 251.5,211.5C 252.833,211.5 254.167,211.5 255.5,211.5C 255.5,220.833 255.5,230.167 255.5,239.5C 254.167,239.5 252.833,239.5 251.5,239.5C 251.5,240.833 251.5,242.167 251.5,243.5C 250.167,243.5 248.833,243.5 247.5,243.5C 247.5,244.833 247.5,246.167 247.5,247.5C 246.167,247.5 244.833,247.5 243.5,247.5C 243.5,248.833 243.5,250.167 243.5,251.5C 242.167,251.5 240.833,251.5 239.5,251.5C 239.5,252.833 239.5,254.167 239.5,255.5C 238.167,255.5 236.833,255.5 235.5,255.5C 235.5,256.833 235.5,258.167 235.5,259.5C 234.167,259.5 232.833,259.5 231.5,259.5C 231.5,260.833 231.5,262.167 231.5,263.5C 228.833,263.5 226.167,263.5 223.5,263.5C 223.5,264.833 223.5,266.167 223.5,267.5C 222.167,267.5 220.833,267.5 219.5,267.5C 219.5,268.833 219.5,270.167 219.5,271.5C 216.833,271.5 214.167,271.5 211.5,271.5C 211.5,272.833 211.5,274.167 211.5,275.5C 207.5,275.5 203.5,275.5 199.5,275.5C 199.5,276.833 199.5,278.167 199.5,279.5C 196.833,279.5 194.167,279.5 191.5,279.5C 191.5,280.833 191.5,282.167 191.5,283.5C 162.167,283.5 132.833,283.5 103.5,283.5C 103.5,282.167 103.5,280.833 103.5,279.5C 100.833,279.5 98.1667,279.5 95.5,279.5C 95.5,278.167 95.5,276.833 95.5,275.5C 91.5,275.5 87.5,275.5 83.5,275.5C 83.5,274.167 83.5,272.833 83.5,271.5C 80.8333,271.5 78.1667,271.5 75.5,271.5C 75.5,270.167 75.5,268.833 75.5,267.5C 74.1667,267.5 72.8333,267.5 71.5,267.5C 71.5,266.167 71.5,264.833 71.5,263.5C 68.8333,263.5 66.1667,263.5 63.5,263.5C 63.5,262.167 63.5,260.833 63.5,259.5C 62.1667,259.5 60.8333,259.5 59.5,259.5C 59.5,258.167 59.5,256.833 59.5,255.5C 58.1667,255.5 56.8333,255.5 55.5,255.5C 55.5,254.167 55.5,252.833 55.5,251.5C 54.1667,251.5 52.8333,251.5 51.5,251.5C 51.5,250.167 51.5,248.833 51.5,247.5C 50.1667,247.5 48.8333,247.5 47.5,247.5C 47.5,246.167 47.5,244.833 47.5,243.5C 46.1667,243.5 44.8333,243.5 43.5,243.5C 43.5,242.167 43.5,240.833 43.5,239.5C 42.1667,239.5 40.8333,239.5 39.5,239.5C 39.5,238.167 39.5,236.833 39.5,235.5C 38.1667,235.5 36.8333,235.5 35.5,235.5C 35.5,234.167 35.5,232.833 35.5,231.5C 34.1667,231.5 32.8333,231.5 31.5,231.5C 31.5,230.167 31.5,228.833 31.5,227.5C 30.1667,227.5 28.8333,227.5 27.5,227.5C 27.5,226.167 27.5,224.833 27.5,223.5C 27.5,222.167 27.5,220.833 27.5,219.5C 26.1667,219.5 24.8333,219.5 23.5,219.5C 23.5,218.167 23.5,216.833 23.5,215.5C 22.1667,215.5 20.8333,215.5 19.5,215.5C 19.5,212.833 19.5,210.167 19.5,207.5C 18.1667,207.5 16.8333,207.5 15.5,207.5C 15.5,204.833 15.5,202.167 15.5,199.5C 14.1667,199.5 12.8333,199.5 11.5,199.5C 11.5,195.5 11.5,191.5 11.5,187.5C 10.1667,187.5 8.83333,187.5 7.5,187.5C 7.5,183.5 7.5,179.5 7.5,175.5C 6.16667,175.5 4.83333,175.5 3.5,175.5C 3.5,172.833 3.5,170.167 3.5,167.5C 2.16667,167.5 0.833333,167.5 -0.5,167.5C -0.5,154.167 -0.5,140.833 -0.5,127.5C 0.833333,127.5 2.16667,127.5 3.5,127.5C 3.5,126.167 3.5,124.833 3.5,123.5C 3.5,118.167 3.5,112.833 3.5,107.5C 4.83333,107.5 6.16667,107.5 7.5,107.5C 7.5,104.833 7.5,102.167 7.5,99.5C 8.83333,99.5 10.1667,99.5 11.5,99.5C 11.5,95.5 11.5,91.5 11.5,87.5C 12.8333,87.5 14.1667,87.5 15.5,87.5C 15.5,84.8333 15.5,82.1667 15.5,79.5C 16.8333,79.5 18.1667,79.5 19.5,79.5C 19.5,76.8333 19.5,74.1667 19.5,71.5C 20.8333,71.5 22.1667,71.5 23.5,71.5C 23.5,68.8333 23.5,66.1667 23.5,63.5C 24.8333,63.5 26.1667,63.5 27.5,63.5C 27.5,62.1667 27.5,60.8333 27.5,59.5C 28.8333,59.5 30.1667,59.5 31.5,59.5C 31.5,58.1667 31.5,56.8333 31.5,55.5C 32.8333,55.5 34.1667,55.5 35.5,55.5C 35.5,54.1667 35.5,52.8333 35.5,51.5C 36.8333,51.5 38.1667,51.5 39.5,51.5C 39.5,48.8333 39.5,46.1667 39.5,43.5C 40.8333,43.5 42.1667,43.5 43.5,43.5C 43.5,42.1667 43.5,40.8333 43.5,39.5C 46.1667,39.5 48.8333,39.5 51.5,39.5C 51.5,38.1667 51.5,36.8333 51.5,35.5C 52.8333,35.5 54.1667,35.5 55.5,35.5C 55.5,34.1667 55.5,32.8333 55.5,31.5C 56.8333,31.5 58.1667,31.5 59.5,31.5C 59.5,30.1667 59.5,28.8333 59.5,27.5C 60.8333,27.5 62.1667,27.5 63.5,27.5C 63.5,26.1667 63.5,24.8333 63.5,23.5C 66.1667,23.5 68.8333,23.5 71.5,23.5C 71.5,22.1667 71.5,20.8333 71.5,19.5C 72.8333,19.5 74.1667,19.5 75.5,19.5C 75.5,18.1667 75.5,16.8333 75.5,15.5C 78.1667,15.5 80.8333,15.5 83.5,15.5C 83.5,14.1667 83.5,12.8333 83.5,11.5C 86.1667,11.5 88.8333,11.5 91.5,11.5C 91.5,10.1667 91.5,8.83333 91.5,7.5C 95.5,7.5 99.5,7.5 103.5,7.5C 103.5,6.16667 103.5,4.83333 103.5,3.5C 107.5,3.5 111.5,3.5 115.5,3.5C 116.833,3.5 118.167,3.5 119.5,3.5C 119.5,2.16667 119.5,0.833333 119.5,-0.5 Z"/></g>
<g><path style="opacity:0.916" fill="#4597ff" d="M 1467.5,87.5 C 1467.5,94.1667 1467.5,100.833 1467.5,107.5C 1464.83,107.5 1462.17,107.5 1459.5,107.5C 1459.5,108.833 1459.5,110.167 1459.5,111.5C 1458.17,111.5 1456.83,111.5 1455.5,111.5C 1455.5,112.833 1455.5,114.167 1455.5,115.5C 1454.17,115.5 1452.83,115.5 1451.5,115.5C 1451.5,116.833 1451.5,118.167 1451.5,119.5C 1450.17,119.5 1448.83,119.5 1447.5,119.5C 1447.5,120.833 1447.5,122.167 1447.5,123.5C 1446.17,123.5 1444.83,123.5 1443.5,123.5C 1443.5,124.833 1443.5,126.167 1443.5,127.5C 1442.17,127.5 1440.83,127.5 1439.5,127.5C 1439.5,128.833 1439.5,130.167 1439.5,131.5C 1438.17,131.5 1436.83,131.5 1435.5,131.5C 1435.5,132.833 1435.5,134.167 1435.5,135.5C 1434.17,135.5 1432.83,135.5 1431.5,135.5C 1431.5,136.833 1431.5,138.167 1431.5,139.5C 1428.83,139.5 1426.17,139.5 1423.5,139.5C 1423.5,140.833 1423.5,142.167 1423.5,143.5C 1422.17,143.5 1420.83,143.5 1419.5,143.5C 1419.5,144.833 1419.5,146.167 1419.5,147.5C 1418.17,147.5 1416.83,147.5 1415.5,147.5C 1415.5,148.833 1415.5,150.167 1415.5,151.5C 1414.17,151.5 1412.83,151.5 1411.5,151.5C 1411.5,152.833 1411.5,154.167 1411.5,155.5C 1412.83,155.5 1414.17,155.5 1415.5,155.5C 1415.5,156.833 1415.5,158.167 1415.5,159.5C 1416.83,159.5 1418.17,159.5 1419.5,159.5C 1419.5,160.833 1419.5,162.167 1419.5,163.5C 1420.83,163.5 1422.17,163.5 1423.5,163.5C 1423.5,164.833 1423.5,166.167 1423.5,167.5C 1424.83,167.5 1426.17,167.5 1427.5,167.5C 1427.5,168.833 1427.5,170.167 1427.5,171.5C 1428.83,171.5 1430.17,171.5 1431.5,171.5C 1431.5,172.833 1431.5,174.167 1431.5,175.5C 1432.83,175.5 1434.17,175.5 1435.5,175.5C 1435.5,176.833 1435.5,178.167 1435.5,179.5C 1436.83,179.5 1438.17,179.5 1439.5,179.5C 1439.5,180.833 1439.5,182.167 1439.5,183.5C 1440.83,183.5 1442.17,183.5 1443.5,183.5C 1443.5,184.833 1443.5,186.167 1443.5,187.5C 1444.83,187.5 1446.17,187.5 1447.5,187.5C 1447.5,188.833 1447.5,190.167 1447.5,191.5C 1448.83,191.5 1450.17,191.5 1451.5,191.5C 1451.5,192.833 1451.5,194.167 1451.5,195.5C 1452.83,195.5 1454.17,195.5 1455.5,195.5C 1455.5,196.833 1455.5,198.167 1455.5,199.5C 1456.83,199.5 1458.17,199.5 1459.5,199.5C 1459.5,200.833 1459.5,202.167 1459.5,203.5C 1459.5,204.833 1459.5,206.167 1459.5,207.5C 1460.83,207.5 1462.17,207.5 1463.5,207.5C 1464.83,207.5 1466.17,207.5 1467.5,207.5C 1467.5,218.167 1467.5,228.833 1467.5,239.5C 1464.83,239.5 1462.17,239.5 1459.5,239.5C 1459.5,240.833 1459.5,242.167 1459.5,243.5C 1455.5,243.5 1451.5,243.5 1447.5,243.5C 1447.5,242.167 1447.5,240.833 1447.5,239.5C 1446.17,239.5 1444.83,239.5 1443.5,239.5C 1443.5,238.167 1443.5,236.833 1443.5,235.5C 1442.17,235.5 1440.83,235.5 1439.5,235.5C 1439.5,234.167 1439.5,232.833 1439.5,231.5C 1438.17,231.5 1436.83,231.5 1435.5,231.5C 1435.5,230.167 1435.5,228.833 1435.5,227.5C 1434.17,227.5 1432.83,227.5 1431.5,227.5C 1431.5,226.167 1431.5,224.833 1431.5,223.5C 1430.17,223.5 1428.83,223.5 1427.5,223.5C 1427.5,222.167 1427.5,220.833 1427.5,219.5C 1426.17,219.5 1424.83,219.5 1423.5,219.5C 1423.5,218.167 1423.5,216.833 1423.5,215.5C 1422.17,215.5 1420.83,215.5 1419.5,215.5C 1419.5,214.167 1419.5,212.833 1419.5,211.5C 1418.17,211.5 1416.83,211.5 1415.5,211.5C 1415.5,210.167 1415.5,208.833 1415.5,207.5C 1414.17,207.5 1412.83,207.5 1411.5,207.5C 1411.5,206.167 1411.5,204.833 1411.5,203.5C 1410.17,203.5 1408.83,203.5 1407.5,203.5C 1407.5,202.167 1407.5,200.833 1407.5,199.5C 1406.17,199.5 1404.83,199.5 1403.5,199.5C 1403.5,196.833 1403.5,194.167 1403.5,191.5C 1400.83,191.5 1398.17,191.5 1395.5,191.5C 1395.5,188.833 1395.5,186.167 1395.5,183.5C 1394.17,183.5 1392.83,183.5 1391.5,183.5C 1391.5,182.167 1391.5,180.833 1391.5,179.5C 1387.5,179.5 1383.5,179.5 1379.5,179.5C 1379.5,180.833 1379.5,182.167 1379.5,183.5C 1378.17,183.5 1376.83,183.5 1375.5,183.5C 1375.5,184.833 1375.5,186.167 1375.5,187.5C 1374.17,187.5 1372.83,187.5 1371.5,187.5C 1371.5,203.5 1371.5,219.5 1371.5,235.5C 1370.17,235.5 1368.83,235.5 1367.5,235.5C 1367.5,236.833 1367.5,238.167 1367.5,239.5C 1364.83,239.5 1362.17,239.5 1359.5,239.5C 1359.5,240.833 1359.5,242.167 1359.5,243.5C 1355.5,243.5 1351.5,243.5 1347.5,243.5C 1347.5,242.167 1347.5,240.833 1347.5,239.5C 1344.83,239.5 1342.17,239.5 1339.5,239.5C 1339.5,238.167 1339.5,236.833 1339.5,235.5C 1338.17,235.5 1336.83,235.5 1335.5,235.5C 1335.5,164.833 1335.5,94.1667 1335.5,23.5C 1336.83,23.5 1338.17,23.5 1339.5,23.5C 1339.5,22.1667 1339.5,20.8333 1339.5,19.5C 1340.83,19.5 1342.17,19.5 1343.5,19.5C 1343.5,18.1667 1343.5,16.8333 1343.5,15.5C 1350.17,15.5 1356.83,15.5 1363.5,15.5C 1363.5,16.8333 1363.5,18.1667 1363.5,19.5C 1364.83,19.5 1366.17,19.5 1367.5,19.5C 1367.5,20.8333 1367.5,22.1667 1367.5,23.5C 1368.83,23.5 1370.17,23.5 1371.5,23.5C 1371.5,63.5 1371.5,103.5 1371.5,143.5C 1372.83,143.5 1374.17,143.5 1375.5,143.5C 1375.5,142.167 1375.5,140.833 1375.5,139.5C 1376.83,139.5 1378.17,139.5 1379.5,139.5C 1379.5,138.167 1379.5,136.833 1379.5,135.5C 1382.17,135.5 1384.83,135.5 1387.5,135.5C 1387.5,134.167 1387.5,132.833 1387.5,131.5C 1388.83,131.5 1390.17,131.5 1391.5,131.5C 1391.5,130.167 1391.5,128.833 1391.5,127.5C 1392.83,127.5 1394.17,127.5 1395.5,127.5C 1395.5,126.167 1395.5,124.833 1395.5,123.5C 1396.83,123.5 1398.17,123.5 1399.5,123.5C 1399.5,122.167 1399.5,120.833 1399.5,119.5C 1400.83,119.5 1402.17,119.5 1403.5,119.5C 1403.5,118.167 1403.5,116.833 1403.5,115.5C 1404.83,115.5 1406.17,115.5 1407.5,115.5C 1407.5,114.167 1407.5,112.833 1407.5,111.5C 1408.83,111.5 1410.17,111.5 1411.5,111.5C 1411.5,110.167 1411.5,108.833 1411.5,107.5C 1412.83,107.5 1414.17,107.5 1415.5,107.5C 1415.5,106.167 1415.5,104.833 1415.5,103.5C 1416.83,103.5 1418.17,103.5 1419.5,103.5C 1419.5,102.167 1419.5,100.833 1419.5,99.5C 1420.83,99.5 1422.17,99.5 1423.5,99.5C 1423.5,98.1667 1423.5,96.8333 1423.5,95.5C 1424.83,95.5 1426.17,95.5 1427.5,95.5C 1427.5,94.1667 1427.5,92.8333 1427.5,91.5C 1428.83,91.5 1430.17,91.5 1431.5,91.5C 1431.5,90.1667 1431.5,88.8333 1431.5,87.5C 1432.83,87.5 1434.17,87.5 1435.5,87.5C 1435.5,86.1667 1435.5,84.8333 1435.5,83.5C 1438.17,83.5 1440.83,83.5 1443.5,83.5C 1443.5,82.1667 1443.5,80.8333 1443.5,79.5C 1448.83,79.5 1454.17,79.5 1459.5,79.5C 1459.5,80.8333 1459.5,82.1667 1459.5,83.5C 1460.83,83.5 1462.17,83.5 1463.5,83.5C 1463.5,84.8333 1463.5,86.1667 1463.5,87.5C 1464.83,87.5 1466.17,87.5 1467.5,87.5 Z"/></g>
<g><path style="opacity:0.008" fill="#8080ff" d="M 243.5,35.5 C 244.833,35.5 246.167,35.5 247.5,35.5C 247.5,36.8333 247.5,38.1667 247.5,39.5C 247.5,38.1667 247.5,36.8333 247.5,35.5C 246.167,35.5 244.833,35.5 243.5,35.5 Z"/></g>
<g><path style="opacity:0.008" fill="#8080ff" d="M 103.5,67.5 C 103.5,68.8333 103.5,70.1667 103.5,71.5C 102.167,71.5 100.833,71.5 99.5,71.5C 99.5,70.1667 99.5,68.8333 99.5,67.5C 100.833,67.5 102.167,67.5 103.5,67.5 Z"/></g>
<g><path style="opacity:0.901" fill="#4598ff" d="M 499.5,179.5 C 499.5,178.167 499.5,176.833 499.5,175.5C 498.167,175.5 496.833,175.5 495.5,175.5C 495.5,171.5 495.5,167.5 495.5,163.5C 494.167,163.5 492.833,163.5 491.5,163.5C 491.5,164.833 491.5,166.167 491.5,167.5C 490.167,167.5 488.833,167.5 487.5,167.5C 487.5,168.833 487.5,170.167 487.5,171.5C 450.167,171.5 412.833,171.5 375.5,171.5C 375.5,174.167 375.5,176.833 375.5,179.5C 376.833,179.5 378.167,179.5 379.5,179.5C 379.5,182.167 379.5,184.833 379.5,187.5C 380.833,187.5 382.167,187.5 383.5,187.5C 383.5,190.167 383.5,192.833 383.5,195.5C 384.833,195.5 386.167,195.5 387.5,195.5C 387.5,196.833 387.5,198.167 387.5,199.5C 388.833,199.5 390.167,199.5 391.5,199.5C 391.5,200.833 391.5,202.167 391.5,203.5C 394.167,203.5 396.833,203.5 399.5,203.5C 399.5,204.833 399.5,206.167 399.5,207.5C 402.167,207.5 404.833,207.5 407.5,207.5C 407.5,208.833 407.5,210.167 407.5,211.5C 419.5,211.5 431.5,211.5 443.5,211.5C 443.5,210.167 443.5,208.833 443.5,207.5C 446.167,207.5 448.833,207.5 451.5,207.5C 451.5,206.167 451.5,204.833 451.5,203.5C 454.167,203.5 456.833,203.5 459.5,203.5C 459.5,202.167 459.5,200.833 459.5,199.5C 460.833,199.5 462.167,199.5 463.5,199.5C 463.5,198.167 463.5,196.833 463.5,195.5C 468.833,195.5 474.167,195.5 479.5,195.5C 479.5,196.833 479.5,198.167 479.5,199.5C 480.833,199.5 482.167,199.5 483.5,199.5C 483.5,200.833 483.5,202.167 483.5,203.5C 484.833,203.5 486.167,203.5 487.5,203.5C 487.5,208.833 487.5,214.167 487.5,219.5C 486.167,219.5 484.833,219.5 483.5,219.5C 483.5,220.833 483.5,222.167 483.5,223.5C 482.167,223.5 480.833,223.5 479.5,223.5C 479.5,224.833 479.5,226.167 479.5,227.5C 478.167,227.5 476.833,227.5 475.5,227.5C 475.5,228.833 475.5,230.167 475.5,231.5C 472.833,231.5 470.167,231.5 467.5,231.5C 467.5,232.833 467.5,234.167 467.5,235.5C 464.833,235.5 462.167,235.5 459.5,235.5C 459.5,236.833 459.5,238.167 459.5,239.5C 456.833,239.5 454.167,239.5 451.5,239.5C 451.5,240.833 451.5,242.167 451.5,243.5C 447.5,243.5 443.5,243.5 439.5,243.5C 438.167,243.5 436.833,243.5 435.5,243.5C 435.5,244.833 435.5,246.167 435.5,247.5C 427.5,247.5 419.5,247.5 411.5,247.5C 411.5,246.167 411.5,244.833 411.5,243.5C 406.167,243.5 400.833,243.5 395.5,243.5C 395.5,242.167 395.5,240.833 395.5,239.5C 391.5,239.5 387.5,239.5 383.5,239.5C 383.5,238.167 383.5,236.833 383.5,235.5C 382.167,235.5 380.833,235.5 379.5,235.5C 379.5,234.167 379.5,232.833 379.5,231.5C 378.167,231.5 376.833,231.5 375.5,231.5C 374.167,231.5 372.833,231.5 371.5,231.5C 371.5,230.167 371.5,228.833 371.5,227.5C 370.167,227.5 368.833,227.5 367.5,227.5C 367.5,226.167 367.5,224.833 367.5,223.5C 366.167,223.5 364.833,223.5 363.5,223.5C 363.5,222.167 363.5,220.833 363.5,219.5C 362.167,219.5 360.833,219.5 359.5,219.5C 359.5,218.167 359.5,216.833 359.5,215.5C 358.167,215.5 356.833,215.5 355.5,215.5C 355.5,214.167 355.5,212.833 355.5,211.5C 355.5,210.167 355.5,208.833 355.5,207.5C 354.167,207.5 352.833,207.5 351.5,207.5C 351.5,206.167 351.5,204.833 351.5,203.5C 350.167,203.5 348.833,203.5 347.5,203.5C 347.5,200.833 347.5,198.167 347.5,195.5C 346.167,195.5 344.833,195.5 343.5,195.5C 343.5,190.167 343.5,184.833 343.5,179.5C 342.167,179.5 340.833,179.5 339.5,179.5C 339.5,167.5 339.5,155.5 339.5,143.5C 340.833,143.5 342.167,143.5 343.5,143.5C 343.5,138.167 343.5,132.833 343.5,127.5C 344.833,127.5 346.167,127.5 347.5,127.5C 347.5,124.833 347.5,122.167 347.5,119.5C 348.833,119.5 350.167,119.5 351.5,119.5C 351.5,116.833 351.5,114.167 351.5,111.5C 352.833,111.5 354.167,111.5 355.5,111.5C 355.5,110.167 355.5,108.833 355.5,107.5C 356.833,107.5 358.167,107.5 359.5,107.5C 359.5,106.167 359.5,104.833 359.5,103.5C 360.833,103.5 362.167,103.5 363.5,103.5C 363.5,102.167 363.5,100.833 363.5,99.5C 364.833,99.5 366.167,99.5 367.5,99.5C 367.5,98.1667 367.5,96.8333 367.5,95.5C 368.833,95.5 370.167,95.5 371.5,95.5C 371.5,94.1667 371.5,92.8333 371.5,91.5C 372.833,91.5 374.167,91.5 375.5,91.5C 375.5,90.1667 375.5,88.8333 375.5,87.5C 378.167,87.5 380.833,87.5 383.5,87.5C 383.5,86.1667 383.5,84.8333 383.5,83.5C 386.167,83.5 388.833,83.5 391.5,83.5C 391.5,82.1667 391.5,80.8333 391.5,79.5C 395.5,79.5 399.5,79.5 403.5,79.5C 403.5,78.1667 403.5,76.8333 403.5,75.5C 414.167,75.5 424.833,75.5 435.5,75.5C 435.5,76.8333 435.5,78.1667 435.5,79.5C 439.5,79.5 443.5,79.5 447.5,79.5C 447.5,80.8333 447.5,82.1667 447.5,83.5C 450.167,83.5 452.833,83.5 455.5,83.5C 455.5,84.8333 455.5,86.1667 455.5,87.5C 456.833,87.5 458.167,87.5 459.5,87.5C 459.5,88.8333 459.5,90.1667 459.5,91.5C 462.167,91.5 464.833,91.5 467.5,91.5C 467.5,92.8333 467.5,94.1667 467.5,95.5C 468.833,95.5 470.167,95.5 471.5,95.5C 471.5,96.8333 471.5,98.1667 471.5,99.5C 472.833,99.5 474.167,99.5 475.5,99.5C 475.5,100.833 475.5,102.167 475.5,103.5C 476.833,103.5 478.167,103.5 479.5,103.5C 479.5,106.167 479.5,108.833 479.5,111.5C 480.833,111.5 482.167,111.5 483.5,111.5C 483.5,112.833 483.5,114.167 483.5,115.5C 484.833,115.5 486.167,115.5 487.5,115.5C 487.5,118.167 487.5,120.833 487.5,123.5C 488.833,123.5 490.167,123.5 491.5,123.5C 491.5,127.5 491.5,131.5 491.5,135.5C 491.5,136.833 491.5,138.167 491.5,139.5C 492.833,139.5 494.167,139.5 495.5,139.5C 495.5,144.833 495.5,150.167 495.5,155.5C 496.833,155.5 498.167,155.5 499.5,155.5C 499.5,146.167 499.5,136.833 499.5,127.5C 500.833,127.5 502.167,127.5 503.5,127.5C 503.5,124.833 503.5,122.167 503.5,119.5C 504.833,119.5 506.167,119.5 507.5,119.5C 507.5,116.833 507.5,114.167 507.5,111.5C 508.833,111.5 510.167,111.5 511.5,111.5C 511.5,110.167 511.5,108.833 511.5,107.5C 512.833,107.5 514.167,107.5 515.5,107.5C 515.5,106.167 515.5,104.833 515.5,103.5C 516.833,103.5 518.167,103.5 519.5,103.5C 519.5,100.833 519.5,98.1667 519.5,95.5C 522.167,95.5 524.833,95.5 527.5,95.5C 527.5,94.1667 527.5,92.8333 527.5,91.5C 528.833,91.5 530.167,91.5 531.5,91.5C 531.5,90.1667 531.5,88.8333 531.5,87.5C 532.833,87.5 534.167,87.5 535.5,87.5C 535.5,86.1667 535.5,84.8333 535.5,83.5C 538.167,83.5 540.833,83.5 543.5,83.5C 543.5,82.1667 543.5,80.8333 543.5,79.5C 547.5,79.5 551.5,79.5 555.5,79.5C 555.5,78.1667 555.5,76.8333 555.5,75.5C 566.167,75.5 576.833,75.5 587.5,75.5C 587.5,76.8333 587.5,78.1667 587.5,79.5C 591.5,79.5 595.5,79.5 599.5,79.5C 599.5,80.8333 599.5,82.1667 599.5,83.5C 602.167,83.5 604.833,83.5 607.5,83.5C 607.5,84.8333 607.5,86.1667 607.5,87.5C 610.167,87.5 612.833,87.5 615.5,87.5C 615.5,88.8333 615.5,90.1667 615.5,91.5C 616.833,91.5 618.167,91.5 619.5,91.5C 619.5,68.8333 619.5,46.1667 619.5,23.5C 620.833,23.5 622.167,23.5 623.5,23.5C 623.5,22.1667 623.5,20.8333 623.5,19.5C 624.833,19.5 626.167,19.5 627.5,19.5C 627.5,18.1667 627.5,16.8333 627.5,15.5C 634.167,15.5 640.833,15.5 647.5,15.5C 647.5,16.8333 647.5,18.1667 647.5,19.5C 648.833,19.5 650.167,19.5 651.5,19.5C 651.5,20.8333 651.5,22.1667 651.5,23.5C 652.833,23.5 654.167,23.5 655.5,23.5C 655.5,94.1667 655.5,164.833 655.5,235.5C 654.167,235.5 652.833,235.5 651.5,235.5C 651.5,236.833 651.5,238.167 651.5,239.5C 648.833,239.5 646.167,239.5 643.5,239.5C 643.5,240.833 643.5,242.167 643.5,243.5C 639.5,243.5 635.5,243.5 631.5,243.5C 631.5,242.167 631.5,240.833 631.5,239.5C 628.833,239.5 626.167,239.5 623.5,239.5C 623.5,238.167 623.5,236.833 623.5,235.5C 622.167,235.5 620.833,235.5 619.5,235.5C 619.5,232.833 619.5,230.167 619.5,227.5C 618.167,227.5 616.833,227.5 615.5,227.5C 615.5,228.833 615.5,230.167 615.5,231.5C 614.167,231.5 612.833,231.5 611.5,231.5C 611.5,232.833 611.5,234.167 611.5,235.5C 608.833,235.5 606.167,235.5 603.5,235.5C 603.5,236.833 603.5,238.167 603.5,239.5C 600.833,239.5 598.167,239.5 595.5,239.5C 595.5,240.833 595.5,242.167 595.5,243.5C 591.5,243.5 587.5,243.5 583.5,243.5C 583.5,244.833 583.5,246.167 583.5,247.5C 575.5,247.5 567.5,247.5 559.5,247.5C 559.5,246.167 559.5,244.833 559.5,243.5C 555.5,243.5 551.5,243.5 547.5,243.5C 547.5,242.167 547.5,240.833 547.5,239.5C 544.833,239.5 542.167,239.5 539.5,239.5C 539.5,238.167 539.5,236.833 539.5,235.5C 536.833,235.5 534.167,235.5 531.5,235.5C 531.5,234.167 531.5,232.833 531.5,231.5C 530.167,231.5 528.833,231.5 527.5,231.5C 527.5,230.167 527.5,228.833 527.5,227.5C 526.167,227.5 524.833,227.5 523.5,227.5C 523.5,226.167 523.5,224.833 523.5,223.5C 522.167,223.5 520.833,223.5 519.5,223.5C 519.5,222.167 519.5,220.833 519.5,219.5C 518.167,219.5 516.833,219.5 515.5,219.5C 515.5,218.167 515.5,216.833 515.5,215.5C 514.167,215.5 512.833,215.5 511.5,215.5C 511.5,212.833 511.5,210.167 511.5,207.5C 510.167,207.5 508.833,207.5 507.5,207.5C 507.5,206.167 507.5,204.833 507.5,203.5C 506.167,203.5 504.833,203.5 503.5,203.5C 503.5,199.5 503.5,195.5 503.5,191.5C 502.167,191.5 500.833,191.5 499.5,191.5C 499.5,187.5 499.5,183.5 499.5,179.5 Z M 455.5,135.5 C 455.5,136.833 455.5,138.167 455.5,139.5C 430.167,139.5 404.833,139.5 379.5,139.5C 379.5,136.833 379.5,134.167 379.5,131.5C 380.833,131.5 382.167,131.5 383.5,131.5C 383.5,128.833 383.5,126.167 383.5,123.5C 384.833,123.5 386.167,123.5 387.5,123.5C 387.5,122.167 387.5,120.833 387.5,119.5C 388.833,119.5 390.167,119.5 391.5,119.5C 391.5,118.167 391.5,116.833 391.5,115.5C 394.167,115.5 396.833,115.5 399.5,115.5C 399.5,114.167 399.5,112.833 399.5,111.5C 411.5,111.5 423.5,111.5 435.5,111.5C 435.5,112.833 435.5,114.167 435.5,115.5C 438.167,115.5 440.833,115.5 443.5,115.5C 443.5,116.833 443.5,118.167 443.5,119.5C 444.833,119.5 446.167,119.5 447.5,119.5C 447.5,120.833 447.5,122.167 447.5,123.5C 448.833,123.5 450.167,123.5 451.5,123.5C 451.5,124.833 451.5,126.167 451.5,127.5C 452.833,127.5 454.167,127.5 455.5,127.5C 455.5,130.167 455.5,132.833 455.5,135.5 Z M 531.5,147.5 C 532.833,147.5 534.167,147.5 535.5,147.5C 535.5,146.167 535.5,144.833 535.5,143.5C 535.5,140.833 535.5,138.167 535.5,135.5C 536.833,135.5 538.167,135.5 539.5,135.5C 539.5,132.833 539.5,130.167 539.5,127.5C 540.833,127.5 542.167,127.5 543.5,127.5C 543.5,126.167 543.5,124.833 543.5,123.5C 544.833,123.5 546.167,123.5 547.5,123.5C 547.5,122.167 547.5,120.833 547.5,119.5C 548.833,119.5 550.167,119.5 551.5,119.5C 551.5,118.167 551.5,116.833 551.5,115.5C 552.833,115.5 554.167,115.5 555.5,115.5C 555.5,114.167 555.5,112.833 555.5,111.5C 568.833,111.5 582.167,111.5 595.5,111.5C 595.5,112.833 595.5,114.167 595.5,115.5C 598.167,115.5 600.833,115.5 603.5,115.5C 603.5,116.833 603.5,118.167 603.5,119.5C 604.833,119.5 606.167,119.5 607.5,119.5C 607.5,120.833 607.5,122.167 607.5,123.5C 608.833,123.5 610.167,123.5 611.5,123.5C 611.5,126.167 611.5,128.833 611.5,131.5C 612.833,131.5 614.167,131.5 615.5,131.5C 615.5,134.167 615.5,136.833 615.5,139.5C 616.833,139.5 618.167,139.5 619.5,139.5C 619.5,154.167 619.5,168.833 619.5,183.5C 618.167,183.5 616.833,183.5 615.5,183.5C 615.5,186.167 615.5,188.833 615.5,191.5C 614.167,191.5 612.833,191.5 611.5,191.5C 611.5,192.833 611.5,194.167 611.5,195.5C 610.167,195.5 608.833,195.5 607.5,195.5C 607.5,198.167 607.5,200.833 607.5,203.5C 604.833,203.5 602.167,203.5 599.5,203.5C 599.5,204.833 599.5,206.167 599.5,207.5C 596.833,207.5 594.167,207.5 591.5,207.5C 591.5,208.833 591.5,210.167 591.5,211.5C 580.833,211.5 570.167,211.5 559.5,211.5C 559.5,210.167 559.5,208.833 559.5,207.5C 556.833,207.5 554.167,207.5 551.5,207.5C 551.5,206.167 551.5,204.833 551.5,203.5C 550.167,203.5 548.833,203.5 547.5,203.5C 547.5,202.167 547.5,200.833 547.5,199.5C 546.167,199.5 544.833,199.5 543.5,199.5C 543.5,198.167 543.5,196.833 543.5,195.5C 542.167,195.5 540.833,195.5 539.5,195.5C 539.5,192.833 539.5,190.167 539.5,187.5C 538.167,187.5 536.833,187.5 535.5,187.5C 535.5,183.5 535.5,179.5 535.5,175.5C 534.167,175.5 532.833,175.5 531.5,175.5C 531.5,166.167 531.5,156.833 531.5,147.5 Z"/></g>
<g><path style="opacity:0.912" fill="#4597ff" d="M 1187.5,99.5 C 1187.5,100.833 1187.5,102.167 1187.5,103.5C 1188.83,103.5 1190.17,103.5 1191.5,103.5C 1191.5,104.833 1191.5,106.167 1191.5,107.5C 1192.83,107.5 1194.17,107.5 1195.5,107.5C 1195.5,108.833 1195.5,110.167 1195.5,111.5C 1196.83,111.5 1198.17,111.5 1199.5,111.5C 1199.5,114.167 1199.5,116.833 1199.5,119.5C 1200.83,119.5 1202.17,119.5 1203.5,119.5C 1203.5,122.167 1203.5,124.833 1203.5,127.5C 1204.83,127.5 1206.17,127.5 1207.5,127.5C 1207.5,131.5 1207.5,135.5 1207.5,139.5C 1208.83,139.5 1210.17,139.5 1211.5,139.5C 1211.5,154.167 1211.5,168.833 1211.5,183.5C 1210.17,183.5 1208.83,183.5 1207.5,183.5C 1207.5,187.5 1207.5,191.5 1207.5,195.5C 1206.17,195.5 1204.83,195.5 1203.5,195.5C 1203.5,198.167 1203.5,200.833 1203.5,203.5C 1202.17,203.5 1200.83,203.5 1199.5,203.5C 1199.5,206.167 1199.5,208.833 1199.5,211.5C 1198.17,211.5 1196.83,211.5 1195.5,211.5C 1195.5,212.833 1195.5,214.167 1195.5,215.5C 1194.17,215.5 1192.83,215.5 1191.5,215.5C 1191.5,216.833 1191.5,218.167 1191.5,219.5C 1190.17,219.5 1188.83,219.5 1187.5,219.5C 1187.5,220.833 1187.5,222.167 1187.5,223.5C 1186.17,223.5 1184.83,223.5 1183.5,223.5C 1183.5,224.833 1183.5,226.167 1183.5,227.5C 1182.17,227.5 1180.83,227.5 1179.5,227.5C 1179.5,228.833 1179.5,230.167 1179.5,231.5C 1178.17,231.5 1176.83,231.5 1175.5,231.5C 1175.5,232.833 1175.5,234.167 1175.5,235.5C 1172.83,235.5 1170.17,235.5 1167.5,235.5C 1167.5,236.833 1167.5,238.167 1167.5,239.5C 1163.5,239.5 1159.5,239.5 1155.5,239.5C 1155.5,240.833 1155.5,242.167 1155.5,243.5C 1151.5,243.5 1147.5,243.5 1143.5,243.5C 1143.5,244.833 1143.5,246.167 1143.5,247.5C 1134.17,247.5 1124.83,247.5 1115.5,247.5C 1115.5,246.167 1115.5,244.833 1115.5,243.5C 1110.17,243.5 1104.83,243.5 1099.5,243.5C 1099.5,242.167 1099.5,240.833 1099.5,239.5C 1096.83,239.5 1094.17,239.5 1091.5,239.5C 1091.5,238.167 1091.5,236.833 1091.5,235.5C 1088.83,235.5 1086.17,235.5 1083.5,235.5C 1083.5,234.167 1083.5,232.833 1083.5,231.5C 1082.17,231.5 1080.83,231.5 1079.5,231.5C 1079.5,230.167 1079.5,228.833 1079.5,227.5C 1078.17,227.5 1076.83,227.5 1075.5,227.5C 1075.5,226.167 1075.5,224.833 1075.5,223.5C 1074.17,223.5 1072.83,223.5 1071.5,223.5C 1071.5,222.167 1071.5,220.833 1071.5,219.5C 1070.17,219.5 1068.83,219.5 1067.5,219.5C 1067.5,218.167 1067.5,216.833 1067.5,215.5C 1066.17,215.5 1064.83,215.5 1063.5,215.5C 1063.5,214.167 1063.5,212.833 1063.5,211.5C 1062.17,211.5 1060.83,211.5 1059.5,211.5C 1059.5,210.167 1059.5,208.833 1059.5,207.5C 1058.17,207.5 1056.83,207.5 1055.5,207.5C 1055.5,204.833 1055.5,202.167 1055.5,199.5C 1055.5,198.167 1055.5,196.833 1055.5,195.5C 1054.17,195.5 1052.83,195.5 1051.5,195.5C 1051.5,192.833 1051.5,190.167 1051.5,187.5C 1050.17,187.5 1048.83,187.5 1047.5,187.5C 1047.5,170.167 1047.5,152.833 1047.5,135.5C 1048.83,135.5 1050.17,135.5 1051.5,135.5C 1051.5,131.5 1051.5,127.5 1051.5,123.5C 1052.83,123.5 1054.17,123.5 1055.5,123.5C 1055.5,120.833 1055.5,118.167 1055.5,115.5C 1056.83,115.5 1058.17,115.5 1059.5,115.5C 1059.5,114.167 1059.5,112.833 1059.5,111.5C 1060.83,111.5 1062.17,111.5 1063.5,111.5C 1063.5,110.167 1063.5,108.833 1063.5,107.5C 1064.83,107.5 1066.17,107.5 1067.5,107.5C 1067.5,106.167 1067.5,104.833 1067.5,103.5C 1067.5,102.167 1067.5,100.833 1067.5,99.5C 1068.83,99.5 1070.17,99.5 1071.5,99.5C 1071.5,98.1667 1071.5,96.8333 1071.5,95.5C 1074.17,95.5 1076.83,95.5 1079.5,95.5C 1079.5,94.1667 1079.5,92.8333 1079.5,91.5C 1080.83,91.5 1082.17,91.5 1083.5,91.5C 1083.5,90.1667 1083.5,88.8333 1083.5,87.5C 1086.17,87.5 1088.83,87.5 1091.5,87.5C 1091.5,86.1667 1091.5,84.8333 1091.5,83.5C 1094.17,83.5 1096.83,83.5 1099.5,83.5C 1099.5,82.1667 1099.5,80.8333 1099.5,79.5C 1103.5,79.5 1107.5,79.5 1111.5,79.5C 1111.5,78.1667 1111.5,76.8333 1111.5,75.5C 1123.5,75.5 1135.5,75.5 1147.5,75.5C 1147.5,76.8333 1147.5,78.1667 1147.5,79.5C 1151.5,79.5 1155.5,79.5 1159.5,79.5C 1159.5,80.8333 1159.5,82.1667 1159.5,83.5C 1162.17,83.5 1164.83,83.5 1167.5,83.5C 1167.5,84.8333 1167.5,86.1667 1167.5,87.5C 1170.17,87.5 1172.83,87.5 1175.5,87.5C 1175.5,88.8333 1175.5,90.1667 1175.5,91.5C 1176.83,91.5 1178.17,91.5 1179.5,91.5C 1179.5,92.8333 1179.5,94.1667 1179.5,95.5C 1180.83,95.5 1182.17,95.5 1183.5,95.5C 1183.5,96.8333 1183.5,98.1667 1183.5,99.5C 1184.83,99.5 1186.17,99.5 1187.5,99.5 Z M 1083.5,143.5 C 1084.83,143.5 1086.17,143.5 1087.5,143.5C 1087.5,142.167 1087.5,140.833 1087.5,139.5C 1087.5,136.833 1087.5,134.167 1087.5,131.5C 1088.83,131.5 1090.17,131.5 1091.5,131.5C 1091.5,130.167 1091.5,128.833 1091.5,127.5C 1092.83,127.5 1094.17,127.5 1095.5,127.5C 1095.5,126.167 1095.5,124.833 1095.5,123.5C 1096.83,123.5 1098.17,123.5 1099.5,123.5C 1099.5,122.167 1099.5,120.833 1099.5,119.5C 1100.83,119.5 1102.17,119.5 1103.5,119.5C 1103.5,118.167 1103.5,116.833 1103.5,115.5C 1106.17,115.5 1108.83,115.5 1111.5,115.5C 1111.5,114.167 1111.5,112.833 1111.5,111.5C 1123.5,111.5 1135.5,111.5 1147.5,111.5C 1147.5,112.833 1147.5,114.167 1147.5,115.5C 1150.17,115.5 1152.83,115.5 1155.5,115.5C 1155.5,116.833 1155.5,118.167 1155.5,119.5C 1156.83,119.5 1158.17,119.5 1159.5,119.5C 1159.5,120.833 1159.5,122.167 1159.5,123.5C 1160.83,123.5 1162.17,123.5 1163.5,123.5C 1163.5,124.833 1163.5,126.167 1163.5,127.5C 1164.83,127.5 1166.17,127.5 1167.5,127.5C 1167.5,130.167 1167.5,132.833 1167.5,135.5C 1168.83,135.5 1170.17,135.5 1171.5,135.5C 1171.5,138.167 1171.5,140.833 1171.5,143.5C 1172.83,143.5 1174.17,143.5 1175.5,143.5C 1175.5,155.5 1175.5,167.5 1175.5,179.5C 1174.17,179.5 1172.83,179.5 1171.5,179.5C 1171.5,182.167 1171.5,184.833 1171.5,187.5C 1170.17,187.5 1168.83,187.5 1167.5,187.5C 1167.5,190.167 1167.5,192.833 1167.5,195.5C 1166.17,195.5 1164.83,195.5 1163.5,195.5C 1163.5,196.833 1163.5,198.167 1163.5,199.5C 1162.17,199.5 1160.83,199.5 1159.5,199.5C 1159.5,200.833 1159.5,202.167 1159.5,203.5C 1158.17,203.5 1156.83,203.5 1155.5,203.5C 1155.5,204.833 1155.5,206.167 1155.5,207.5C 1152.83,207.5 1150.17,207.5 1147.5,207.5C 1147.5,208.833 1147.5,210.167 1147.5,211.5C 1135.5,211.5 1123.5,211.5 1111.5,211.5C 1111.5,210.167 1111.5,208.833 1111.5,207.5C 1108.83,207.5 1106.17,207.5 1103.5,207.5C 1103.5,206.167 1103.5,204.833 1103.5,203.5C 1102.17,203.5 1100.83,203.5 1099.5,203.5C 1099.5,202.167 1099.5,200.833 1099.5,199.5C 1098.17,199.5 1096.83,199.5 1095.5,199.5C 1095.5,198.167 1095.5,196.833 1095.5,195.5C 1094.17,195.5 1092.83,195.5 1091.5,195.5C 1091.5,194.167 1091.5,192.833 1091.5,191.5C 1090.17,191.5 1088.83,191.5 1087.5,191.5C 1087.5,187.5 1087.5,183.5 1087.5,179.5C 1086.17,179.5 1084.83,179.5 1083.5,179.5C 1083.5,167.5 1083.5,155.5 1083.5,143.5 Z"/></g>
<g><path style="opacity:0.874" fill="#4598ff" d="M 1327.5,99.5 C 1326.17,99.5 1324.83,99.5 1323.5,99.5C 1323.5,100.833 1323.5,102.167 1323.5,103.5C 1323.5,104.833 1323.5,106.167 1323.5,107.5C 1322.17,107.5 1320.83,107.5 1319.5,107.5C 1319.5,108.833 1319.5,110.167 1319.5,111.5C 1312.83,111.5 1306.17,111.5 1299.5,111.5C 1299.5,110.167 1299.5,108.833 1299.5,107.5C 1294.17,107.5 1288.83,107.5 1283.5,107.5C 1283.5,108.833 1283.5,110.167 1283.5,111.5C 1280.83,111.5 1278.17,111.5 1275.5,111.5C 1275.5,112.833 1275.5,114.167 1275.5,115.5C 1274.17,115.5 1272.83,115.5 1271.5,115.5C 1271.5,116.833 1271.5,118.167 1271.5,119.5C 1270.17,119.5 1268.83,119.5 1267.5,119.5C 1267.5,120.833 1267.5,122.167 1267.5,123.5C 1266.17,123.5 1264.83,123.5 1263.5,123.5C 1263.5,126.167 1263.5,128.833 1263.5,131.5C 1262.17,131.5 1260.83,131.5 1259.5,131.5C 1259.5,164.833 1259.5,198.167 1259.5,231.5C 1258.17,231.5 1256.83,231.5 1255.5,231.5C 1255.5,232.833 1255.5,234.167 1255.5,235.5C 1254.17,235.5 1252.83,235.5 1251.5,235.5C 1251.5,236.833 1251.5,238.167 1251.5,239.5C 1250.17,239.5 1248.83,239.5 1247.5,239.5C 1247.5,240.833 1247.5,242.167 1247.5,243.5C 1242.17,243.5 1236.83,243.5 1231.5,243.5C 1231.5,242.167 1231.5,240.833 1231.5,239.5C 1230.17,239.5 1228.83,239.5 1227.5,239.5C 1227.5,238.167 1227.5,236.833 1227.5,235.5C 1226.17,235.5 1224.83,235.5 1223.5,235.5C 1223.5,232.833 1223.5,230.167 1223.5,227.5C 1223.5,224.833 1223.5,222.167 1223.5,219.5C 1223.5,180.833 1223.5,142.167 1223.5,103.5C 1223.5,100.833 1223.5,98.1667 1223.5,95.5C 1223.5,92.8333 1223.5,90.1667 1223.5,87.5C 1224.83,87.5 1226.17,87.5 1227.5,87.5C 1227.5,86.1667 1227.5,84.8333 1227.5,83.5C 1228.83,83.5 1230.17,83.5 1231.5,83.5C 1231.5,82.1667 1231.5,80.8333 1231.5,79.5C 1236.83,79.5 1242.17,79.5 1247.5,79.5C 1247.5,80.8333 1247.5,82.1667 1247.5,83.5C 1248.83,83.5 1250.17,83.5 1251.5,83.5C 1251.5,84.8333 1251.5,86.1667 1251.5,87.5C 1252.83,87.5 1254.17,87.5 1255.5,87.5C 1255.5,88.8333 1255.5,90.1667 1255.5,91.5C 1256.83,91.5 1258.17,91.5 1259.5,91.5C 1259.5,92.8333 1259.5,94.1667 1259.5,95.5C 1260.83,95.5 1262.17,95.5 1263.5,95.5C 1263.5,94.1667 1263.5,92.8333 1263.5,91.5C 1264.83,91.5 1266.17,91.5 1267.5,91.5C 1267.5,90.1667 1267.5,88.8333 1267.5,87.5C 1268.83,87.5 1270.17,87.5 1271.5,87.5C 1271.5,86.1667 1271.5,84.8333 1271.5,83.5C 1274.17,83.5 1276.83,83.5 1279.5,83.5C 1279.5,82.1667 1279.5,80.8333 1279.5,79.5C 1283.5,79.5 1287.5,79.5 1291.5,79.5C 1291.5,78.1667 1291.5,76.8333 1291.5,75.5C 1299.5,75.5 1307.5,75.5 1315.5,75.5C 1315.5,76.8333 1315.5,78.1667 1315.5,79.5C 1316.83,79.5 1318.17,79.5 1319.5,79.5C 1319.5,80.8333 1319.5,82.1667 1319.5,83.5C 1320.83,83.5 1322.17,83.5 1323.5,83.5C 1323.5,84.8333 1323.5,86.1667 1323.5,87.5C 1324.83,87.5 1326.17,87.5 1327.5,87.5C 1327.5,91.5 1327.5,95.5 1327.5,99.5 Z"/></g>
<g><path style="opacity:0.008" fill="#8080ff" d="M 207.5,79.5 C 208.833,79.5 210.167,79.5 211.5,79.5C 211.5,80.8333 211.5,82.1667 211.5,83.5C 210.167,83.5 208.833,83.5 207.5,83.5C 207.5,82.1667 207.5,80.8333 207.5,79.5 Z"/></g>
<g><path style="opacity:0.899" fill="#4498ff" d="M 783.5,91.5 C 784.833,91.5 786.167,91.5 787.5,91.5C 787.5,90.1667 787.5,88.8333 787.5,87.5C 787.5,86.1667 787.5,84.8333 787.5,83.5C 790.167,83.5 792.833,83.5 795.5,83.5C 795.5,82.1667 795.5,80.8333 795.5,79.5C 800.833,79.5 806.167,79.5 811.5,79.5C 811.5,80.8333 811.5,82.1667 811.5,83.5C 812.833,83.5 814.167,83.5 815.5,83.5C 815.5,84.8333 815.5,86.1667 815.5,87.5C 816.833,87.5 818.167,87.5 819.5,87.5C 819.5,126.167 819.5,164.833 819.5,203.5C 818.167,203.5 816.833,203.5 815.5,203.5C 815.5,206.167 815.5,208.833 815.5,211.5C 814.167,211.5 812.833,211.5 811.5,211.5C 811.5,214.167 811.5,216.833 811.5,219.5C 810.167,219.5 808.833,219.5 807.5,219.5C 807.5,220.833 807.5,222.167 807.5,223.5C 806.167,223.5 804.833,223.5 803.5,223.5C 803.5,224.833 803.5,226.167 803.5,227.5C 802.167,227.5 800.833,227.5 799.5,227.5C 799.5,228.833 799.5,230.167 799.5,231.5C 798.167,231.5 796.833,231.5 795.5,231.5C 795.5,232.833 795.5,234.167 795.5,235.5C 792.833,235.5 790.167,235.5 787.5,235.5C 787.5,236.833 787.5,238.167 787.5,239.5C 784.833,239.5 782.167,239.5 779.5,239.5C 779.5,240.833 779.5,242.167 779.5,243.5C 774.167,243.5 768.833,243.5 763.5,243.5C 763.5,244.833 763.5,246.167 763.5,247.5C 755.5,247.5 747.5,247.5 739.5,247.5C 739.5,246.167 739.5,244.833 739.5,243.5C 734.167,243.5 728.833,243.5 723.5,243.5C 723.5,242.167 723.5,240.833 723.5,239.5C 719.5,239.5 715.5,239.5 711.5,239.5C 711.5,238.167 711.5,236.833 711.5,235.5C 710.167,235.5 708.833,235.5 707.5,235.5C 707.5,234.167 707.5,232.833 707.5,231.5C 706.167,231.5 704.833,231.5 703.5,231.5C 703.5,230.167 703.5,228.833 703.5,227.5C 702.167,227.5 700.833,227.5 699.5,227.5C 699.5,226.167 699.5,224.833 699.5,223.5C 698.167,223.5 696.833,223.5 695.5,223.5C 695.5,222.167 695.5,220.833 695.5,219.5C 694.167,219.5 692.833,219.5 691.5,219.5C 691.5,216.833 691.5,214.167 691.5,211.5C 690.167,211.5 688.833,211.5 687.5,211.5C 687.5,208.833 687.5,206.167 687.5,203.5C 686.167,203.5 684.833,203.5 683.5,203.5C 683.5,195.5 683.5,187.5 683.5,179.5C 683.5,152.833 683.5,126.167 683.5,99.5C 683.5,98.1667 683.5,96.8333 683.5,95.5C 683.5,94.1667 683.5,92.8333 683.5,91.5C 683.5,90.1667 683.5,88.8333 683.5,87.5C 684.833,87.5 686.167,87.5 687.5,87.5C 687.5,86.1667 687.5,84.8333 687.5,83.5C 688.833,83.5 690.167,83.5 691.5,83.5C 691.5,82.1667 691.5,80.8333 691.5,79.5C 696.833,79.5 702.167,79.5 707.5,79.5C 707.5,80.8333 707.5,82.1667 707.5,83.5C 708.833,83.5 710.167,83.5 711.5,83.5C 711.5,84.8333 711.5,86.1667 711.5,87.5C 712.833,87.5 714.167,87.5 715.5,87.5C 715.5,88.8333 715.5,90.1667 715.5,91.5C 716.833,91.5 718.167,91.5 719.5,91.5C 719.5,126.167 719.5,160.833 719.5,195.5C 720.833,195.5 722.167,195.5 723.5,195.5C 723.5,198.167 723.5,200.833 723.5,203.5C 724.833,203.5 726.167,203.5 727.5,203.5C 727.5,204.833 727.5,206.167 727.5,207.5C 730.167,207.5 732.833,207.5 735.5,207.5C 735.5,208.833 735.5,210.167 735.5,211.5C 746.167,211.5 756.833,211.5 767.5,211.5C 767.5,210.167 767.5,208.833 767.5,207.5C 770.167,207.5 772.833,207.5 775.5,207.5C 775.5,206.167 775.5,204.833 775.5,203.5C 776.833,203.5 778.167,203.5 779.5,203.5C 779.5,200.833 779.5,198.167 779.5,195.5C 780.833,195.5 782.167,195.5 783.5,195.5C 783.5,160.833 783.5,126.167 783.5,91.5 Z"/></g>
<g><path style="opacity:0.91" fill="#4598ff" d="M 883.5,147.5 C 883.5,148.833 883.5,150.167 883.5,151.5C 884.833,151.5 886.167,151.5 887.5,151.5C 887.5,155.5 887.5,159.5 887.5,163.5C 888.833,163.5 890.167,163.5 891.5,163.5C 891.5,166.167 891.5,168.833 891.5,171.5C 892.833,171.5 894.167,171.5 895.5,171.5C 895.5,174.167 895.5,176.833 895.5,179.5C 896.833,179.5 898.167,179.5 899.5,179.5C 899.5,174.167 899.5,168.833 899.5,163.5C 900.833,163.5 902.167,163.5 903.5,163.5C 903.5,160.833 903.5,158.167 903.5,155.5C 904.833,155.5 906.167,155.5 907.5,155.5C 907.5,151.5 907.5,147.5 907.5,143.5C 908.833,143.5 910.167,143.5 911.5,143.5C 911.5,140.833 911.5,138.167 911.5,135.5C 912.833,135.5 914.167,135.5 915.5,135.5C 915.5,134.167 915.5,132.833 915.5,131.5C 915.5,128.833 915.5,126.167 915.5,123.5C 916.833,123.5 918.167,123.5 919.5,123.5C 919.5,120.833 919.5,118.167 919.5,115.5C 920.833,115.5 922.167,115.5 923.5,115.5C 923.5,112.833 923.5,110.167 923.5,107.5C 924.833,107.5 926.167,107.5 927.5,107.5C 927.5,106.167 927.5,104.833 927.5,103.5C 932.833,103.5 938.167,103.5 943.5,103.5C 943.5,104.833 943.5,106.167 943.5,107.5C 946.167,107.5 948.833,107.5 951.5,107.5C 951.5,110.167 951.5,112.833 951.5,115.5C 952.833,115.5 954.167,115.5 955.5,115.5C 955.5,119.5 955.5,123.5 955.5,127.5C 956.833,127.5 958.167,127.5 959.5,127.5C 959.5,130.167 959.5,132.833 959.5,135.5C 960.833,135.5 962.167,135.5 963.5,135.5C 963.5,139.5 963.5,143.5 963.5,147.5C 964.833,147.5 966.167,147.5 967.5,147.5C 967.5,150.167 967.5,152.833 967.5,155.5C 968.833,155.5 970.167,155.5 971.5,155.5C 971.5,158.167 971.5,160.833 971.5,163.5C 971.5,164.833 971.5,166.167 971.5,167.5C 972.833,167.5 974.167,167.5 975.5,167.5C 975.5,171.5 975.5,175.5 975.5,179.5C 976.833,179.5 978.167,179.5 979.5,179.5C 979.5,175.5 979.5,171.5 979.5,167.5C 980.833,167.5 982.167,167.5 983.5,167.5C 983.5,164.833 983.5,162.167 983.5,159.5C 984.833,159.5 986.167,159.5 987.5,159.5C 987.5,155.5 987.5,151.5 987.5,147.5C 988.833,147.5 990.167,147.5 991.5,147.5C 991.5,143.5 991.5,139.5 991.5,135.5C 992.833,135.5 994.167,135.5 995.5,135.5C 995.5,131.5 995.5,127.5 995.5,123.5C 996.833,123.5 998.167,123.5 999.5,123.5C 999.5,120.833 999.5,118.167 999.5,115.5C 1000.83,115.5 1002.17,115.5 1003.5,115.5C 1003.5,111.5 1003.5,107.5 1003.5,103.5C 1004.83,103.5 1006.17,103.5 1007.5,103.5C 1007.5,99.5 1007.5,95.5 1007.5,91.5C 1008.83,91.5 1010.17,91.5 1011.5,91.5C 1011.5,88.8333 1011.5,86.1667 1011.5,83.5C 1012.83,83.5 1014.17,83.5 1015.5,83.5C 1015.5,82.1667 1015.5,80.8333 1015.5,79.5C 1022.17,79.5 1028.83,79.5 1035.5,79.5C 1035.5,80.8333 1035.5,82.1667 1035.5,83.5C 1036.83,83.5 1038.17,83.5 1039.5,83.5C 1040.83,83.5 1042.17,83.5 1043.5,83.5C 1043.5,92.8333 1043.5,102.167 1043.5,111.5C 1042.17,111.5 1040.83,111.5 1039.5,111.5C 1039.5,114.167 1039.5,116.833 1039.5,119.5C 1038.17,119.5 1036.83,119.5 1035.5,119.5C 1035.5,123.5 1035.5,127.5 1035.5,131.5C 1034.17,131.5 1032.83,131.5 1031.5,131.5C 1031.5,135.5 1031.5,139.5 1031.5,143.5C 1030.17,143.5 1028.83,143.5 1027.5,143.5C 1027.5,147.5 1027.5,151.5 1027.5,155.5C 1026.17,155.5 1024.83,155.5 1023.5,155.5C 1023.5,158.167 1023.5,160.833 1023.5,163.5C 1022.17,163.5 1020.83,163.5 1019.5,163.5C 1019.5,167.5 1019.5,171.5 1019.5,175.5C 1018.17,175.5 1016.83,175.5 1015.5,175.5C 1015.5,179.5 1015.5,183.5 1015.5,187.5C 1014.17,187.5 1012.83,187.5 1011.5,187.5C 1011.5,191.5 1011.5,195.5 1011.5,199.5C 1010.17,199.5 1008.83,199.5 1007.5,199.5C 1007.5,202.167 1007.5,204.833 1007.5,207.5C 1006.17,207.5 1004.83,207.5 1003.5,207.5C 1003.5,208.833 1003.5,210.167 1003.5,211.5C 1003.5,214.167 1003.5,216.833 1003.5,219.5C 1002.17,219.5 1000.83,219.5 999.5,219.5C 999.5,220.833 999.5,222.167 999.5,223.5C 999.5,226.167 999.5,228.833 999.5,231.5C 998.167,231.5 996.833,231.5 995.5,231.5C 995.5,234.167 995.5,236.833 995.5,239.5C 992.833,239.5 990.167,239.5 987.5,239.5C 987.5,240.833 987.5,242.167 987.5,243.5C 982.167,243.5 976.833,243.5 971.5,243.5C 971.5,242.167 971.5,240.833 971.5,239.5C 970.167,239.5 968.833,239.5 967.5,239.5C 967.5,238.167 967.5,236.833 967.5,235.5C 966.167,235.5 964.833,235.5 963.5,235.5C 963.5,232.833 963.5,230.167 963.5,227.5C 962.167,227.5 960.833,227.5 959.5,227.5C 959.5,223.5 959.5,219.5 959.5,215.5C 958.167,215.5 956.833,215.5 955.5,215.5C 955.5,212.833 955.5,210.167 955.5,207.5C 954.167,207.5 952.833,207.5 951.5,207.5C 951.5,203.5 951.5,199.5 951.5,195.5C 950.167,195.5 948.833,195.5 947.5,195.5C 947.5,192.833 947.5,190.167 947.5,187.5C 946.167,187.5 944.833,187.5 943.5,187.5C 943.5,182.167 943.5,176.833 943.5,171.5C 942.167,171.5 940.833,171.5 939.5,171.5C 939.5,168.833 939.5,166.167 939.5,163.5C 938.167,163.5 936.833,163.5 935.5,163.5C 935.5,164.833 935.5,166.167 935.5,167.5C 934.167,167.5 932.833,167.5 931.5,167.5C 931.5,171.5 931.5,175.5 931.5,179.5C 930.167,179.5 928.833,179.5 927.5,179.5C 927.5,182.167 927.5,184.833 927.5,187.5C 926.167,187.5 924.833,187.5 923.5,187.5C 923.5,192.833 923.5,198.167 923.5,203.5C 922.167,203.5 920.833,203.5 919.5,203.5C 919.5,206.167 919.5,208.833 919.5,211.5C 918.167,211.5 916.833,211.5 915.5,211.5C 915.5,215.5 915.5,219.5 915.5,223.5C 914.167,223.5 912.833,223.5 911.5,223.5C 911.5,227.5 911.5,231.5 911.5,235.5C 910.167,235.5 908.833,235.5 907.5,235.5C 907.5,236.833 907.5,238.167 907.5,239.5C 906.167,239.5 904.833,239.5 903.5,239.5C 902.167,239.5 900.833,239.5 899.5,239.5C 899.5,240.833 899.5,242.167 899.5,243.5C 895.5,243.5 891.5,243.5 887.5,243.5C 887.5,242.167 887.5,240.833 887.5,239.5C 884.833,239.5 882.167,239.5 879.5,239.5C 879.5,238.167 879.5,236.833 879.5,235.5C 878.167,235.5 876.833,235.5 875.5,235.5C 875.5,231.5 875.5,227.5 875.5,223.5C 874.167,223.5 872.833,223.5 871.5,223.5C 871.5,219.5 871.5,215.5 871.5,211.5C 870.167,211.5 868.833,211.5 867.5,211.5C 867.5,208.833 867.5,206.167 867.5,203.5C 867.5,202.167 867.5,200.833 867.5,199.5C 866.167,199.5 864.833,199.5 863.5,199.5C 863.5,196.833 863.5,194.167 863.5,191.5C 862.167,191.5 860.833,191.5 859.5,191.5C 859.5,187.5 859.5,183.5 859.5,179.5C 858.167,179.5 856.833,179.5 855.5,179.5C 855.5,175.5 855.5,171.5 855.5,167.5C 854.167,167.5 852.833,167.5 851.5,167.5C 851.5,163.5 851.5,159.5 851.5,155.5C 850.167,155.5 848.833,155.5 847.5,155.5C 847.5,151.5 847.5,147.5 847.5,143.5C 846.167,143.5 844.833,143.5 843.5,143.5C 843.5,140.833 843.5,138.167 843.5,135.5C 842.167,135.5 840.833,135.5 839.5,135.5C 839.5,131.5 839.5,127.5 839.5,123.5C 838.167,123.5 836.833,123.5 835.5,123.5C 835.5,119.5 835.5,115.5 835.5,111.5C 834.167,111.5 832.833,111.5 831.5,111.5C 831.5,108.833 831.5,106.167 831.5,103.5C 831.5,102.167 831.5,100.833 831.5,99.5C 830.167,99.5 828.833,99.5 827.5,99.5C 827.5,96.8333 827.5,94.1667 827.5,91.5C 828.833,91.5 830.167,91.5 831.5,91.5C 831.5,88.8333 831.5,86.1667 831.5,83.5C 832.833,83.5 834.167,83.5 835.5,83.5C 835.5,82.1667 835.5,80.8333 835.5,79.5C 843.5,79.5 851.5,79.5 859.5,79.5C 859.5,80.8333 859.5,82.1667 859.5,83.5C 860.833,83.5 862.167,83.5 863.5,83.5C 863.5,87.5 863.5,91.5 863.5,95.5C 864.833,95.5 866.167,95.5 867.5,95.5C 867.5,98.1667 867.5,100.833 867.5,103.5C 868.833,103.5 870.167,103.5 871.5,103.5C 871.5,107.5 871.5,111.5 871.5,115.5C 872.833,115.5 874.167,115.5 875.5,115.5C 875.5,119.5 875.5,123.5 875.5,127.5C 876.833,127.5 878.167,127.5 879.5,127.5C 879.5,131.5 879.5,135.5 879.5,139.5C 880.833,139.5 882.167,139.5 883.5,139.5C 883.5,142.167 883.5,144.833 883.5,147.5 Z"/></g>
<g><path style="opacity:0.004" fill="#00fffe" d="M 1035.5,79.5 C 1036.83,79.5 1038.17,79.5 1039.5,79.5C 1039.5,80.8333 1039.5,82.1667 1039.5,83.5C 1039.5,82.1667 1039.5,80.8333 1039.5,79.5C 1038.17,79.5 1036.83,79.5 1035.5,79.5 Z"/></g>
<g><path style="opacity:0.004" fill="#00fffe" d="M 211.5,83.5 C 212.833,83.5 214.167,83.5 215.5,83.5C 215.5,84.8333 215.5,86.1667 215.5,87.5C 214.167,87.5 212.833,87.5 211.5,87.5C 211.5,86.1667 211.5,84.8333 211.5,83.5 Z"/></g>
<g><path style="opacity:0.004" fill="#00fffe" d="M 787.5,87.5 C 787.5,88.8333 787.5,90.1667 787.5,91.5C 786.167,91.5 784.833,91.5 783.5,91.5C 783.5,90.1667 783.5,88.8333 783.5,87.5C 784.833,87.5 786.167,87.5 787.5,87.5 Z"/></g>
<g><path style="opacity:0.004" fill="#00fffe" d="M 683.5,91.5 C 683.5,92.8333 683.5,94.1667 683.5,95.5C 682.167,95.5 680.833,95.5 679.5,95.5C 679.5,94.1667 679.5,92.8333 679.5,91.5C 680.833,91.5 682.167,91.5 683.5,91.5 Z"/></g>
<g><path style="opacity:0.008" fill="#8080ff" d="M 283.5,95.5 C 284.833,95.5 286.167,95.5 287.5,95.5C 287.5,96.8333 287.5,98.1667 287.5,99.5C 287.5,98.1667 287.5,96.8333 287.5,95.5C 286.167,95.5 284.833,95.5 283.5,95.5 Z"/></g>
<g><path style="opacity:0.008" fill="#8080ff" d="M 679.5,95.5 C 680.833,95.5 682.167,95.5 683.5,95.5C 683.5,96.8333 683.5,98.1667 683.5,99.5C 682.167,99.5 680.833,99.5 679.5,99.5C 679.5,98.1667 679.5,96.8333 679.5,95.5 Z"/></g>
<g><path style="opacity:0.008" fill="#8080ff" d="M 1223.5,95.5 C 1223.5,98.1667 1223.5,100.833 1223.5,103.5C 1222.17,103.5 1220.83,103.5 1219.5,103.5C 1219.5,100.833 1219.5,98.1667 1219.5,95.5C 1220.83,95.5 1222.17,95.5 1223.5,95.5 Z"/></g>
<g><path style="opacity:0.004" fill="#00fffe" d="M 679.5,99.5 C 680.833,99.5 682.167,99.5 683.5,99.5C 683.5,126.167 683.5,152.833 683.5,179.5C 682.167,179.5 680.833,179.5 679.5,179.5C 679.5,152.833 679.5,126.167 679.5,99.5 Z"/></g>
<g><path style="opacity:0.004" fill="#00fffe" d="M 827.5,99.5 C 828.833,99.5 830.167,99.5 831.5,99.5C 831.5,100.833 831.5,102.167 831.5,103.5C 830.167,103.5 828.833,103.5 827.5,103.5C 827.5,102.167 827.5,100.833 827.5,99.5 Z"/></g>
<g><path style="opacity:0.004" fill="#00fffe" d="M 1187.5,99.5 C 1188.83,99.5 1190.17,99.5 1191.5,99.5C 1191.5,100.833 1191.5,102.167 1191.5,103.5C 1191.5,102.167 1191.5,100.833 1191.5,99.5C 1190.17,99.5 1188.83,99.5 1187.5,99.5 Z"/></g>
<g><path style="opacity:0.008" fill="#8080ff" d="M 1327.5,99.5 C 1327.5,100.833 1327.5,102.167 1327.5,103.5C 1326.17,103.5 1324.83,103.5 1323.5,103.5C 1323.5,102.167 1323.5,100.833 1323.5,99.5C 1324.83,99.5 1326.17,99.5 1327.5,99.5 Z"/></g>
<g><path style="opacity:0.004" fill="#00fffe" d="M 1067.5,103.5 C 1067.5,104.833 1067.5,106.167 1067.5,107.5C 1066.17,107.5 1064.83,107.5 1063.5,107.5C 1063.5,106.167 1063.5,104.833 1063.5,103.5C 1064.83,103.5 1066.17,103.5 1067.5,103.5 Z"/></g>
<g><path style="opacity:0.004" fill="#00fffe" d="M 1219.5,103.5 C 1220.83,103.5 1222.17,103.5 1223.5,103.5C 1223.5,142.167 1223.5,180.833 1223.5,219.5C 1222.17,219.5 1220.83,219.5 1219.5,219.5C 1219.5,180.833 1219.5,142.167 1219.5,103.5 Z"/></g>
<g><path style="opacity:0.004" fill="#00fffe" d="M -0.5,123.5 C 0.833333,123.5 2.16667,123.5 3.5,123.5C 3.5,124.833 3.5,126.167 3.5,127.5C 2.16667,127.5 0.833333,127.5 -0.5,127.5C -0.5,126.167 -0.5,124.833 -0.5,123.5 Z"/></g>
<g><path style="opacity:0.008" fill="#8080ff" d="M 63.5,131.5 C 63.5,132.833 63.5,134.167 63.5,135.5C 62.1667,135.5 60.8333,135.5 59.5,135.5C 59.5,134.167 59.5,132.833 59.5,131.5C 60.8333,131.5 62.1667,131.5 63.5,131.5 Z"/></g>
<g><path style="opacity:0.008" fill="#8080ff" d="M 915.5,131.5 C 915.5,132.833 915.5,134.167 915.5,135.5C 914.167,135.5 912.833,135.5 911.5,135.5C 911.5,134.167 911.5,132.833 911.5,131.5C 912.833,131.5 914.167,131.5 915.5,131.5 Z"/></g>
<g><path style="opacity:0.004" fill="#00fffe" d="M 455.5,135.5 C 456.833,135.5 458.167,135.5 459.5,135.5C 459.5,136.833 459.5,138.167 459.5,139.5C 458.167,139.5 456.833,139.5 455.5,139.5C 455.5,138.167 455.5,136.833 455.5,135.5 Z"/></g>
<g><path style="opacity:0.004" fill="#00fffe" d="M 491.5,135.5 C 492.833,135.5 494.167,135.5 495.5,135.5C 495.5,136.833 495.5,138.167 495.5,139.5C 495.5,138.167 495.5,136.833 495.5,135.5C 494.167,135.5 492.833,135.5 491.5,135.5 Z"/></g>
<g><path style="opacity:0.008" fill="#8080ff" d="M 1087.5,139.5 C 1087.5,140.833 1087.5,142.167 1087.5,143.5C 1086.17,143.5 1084.83,143.5 1083.5,143.5C 1083.5,142.167 1083.5,140.833 1083.5,139.5C 1084.83,139.5 1086.17,139.5 1087.5,139.5 Z"/></g>
<g><path style="opacity:0.004" fill="#00fffe" d="M 535.5,143.5 C 535.5,144.833 535.5,146.167 535.5,147.5C 534.167,147.5 532.833,147.5 531.5,147.5C 531.5,146.167 531.5,144.833 531.5,143.5C 532.833,143.5 534.167,143.5 535.5,143.5 Z"/></g>
<g><path style="opacity:0.008" fill="#8080ff" d="M 883.5,147.5 C 884.833,147.5 886.167,147.5 887.5,147.5C 887.5,148.833 887.5,150.167 887.5,151.5C 887.5,150.167 887.5,148.833 887.5,147.5C 886.167,147.5 884.833,147.5 883.5,147.5 Z"/></g>
<g><path style="opacity:0.004" fill="#00fffe" d="M 971.5,163.5 C 972.833,163.5 974.167,163.5 975.5,163.5C 975.5,164.833 975.5,166.167 975.5,167.5C 975.5,166.167 975.5,164.833 975.5,163.5C 974.167,163.5 972.833,163.5 971.5,163.5 Z"/></g>
<g><path style="opacity:0.004" fill="#00fffe" d="M 199.5,171.5 C 199.5,172.833 199.5,174.167 199.5,175.5C 198.167,175.5 196.833,175.5 195.5,175.5C 195.5,174.167 195.5,172.833 195.5,171.5C 196.833,171.5 198.167,171.5 199.5,171.5 Z"/></g>
<g><path style="opacity:0.004" fill="#00fffe" d="M 235.5,171.5 C 236.833,171.5 238.167,171.5 239.5,171.5C 239.5,172.833 239.5,174.167 239.5,175.5C 238.167,175.5 236.833,175.5 235.5,175.5C 235.5,174.167 235.5,172.833 235.5,171.5 Z"/></g>
<g><path style="opacity:0.008" fill="#8080ff" d="M 239.5,171.5 C 240.833,171.5 242.167,171.5 243.5,171.5C 243.5,172.833 243.5,174.167 243.5,175.5C 242.167,175.5 240.833,175.5 239.5,175.5C 239.5,174.167 239.5,172.833 239.5,171.5 Z"/></g>
<g><path style="opacity:0.008" fill="#8080ff" d="M 495.5,175.5 C 496.833,175.5 498.167,175.5 499.5,175.5C 499.5,176.833 499.5,178.167 499.5,179.5C 498.167,179.5 496.833,179.5 495.5,179.5C 495.5,178.167 495.5,176.833 495.5,175.5 Z"/></g>
<g><path style="opacity:0.004" fill="#00fffe" d="M 1051.5,195.5 C 1052.83,195.5 1054.17,195.5 1055.5,195.5C 1055.5,196.833 1055.5,198.167 1055.5,199.5C 1054.17,199.5 1052.83,199.5 1051.5,199.5C 1051.5,198.167 1051.5,196.833 1051.5,195.5 Z"/></g>
<g><path style="opacity:0.008" fill="#8080ff" d="M 863.5,199.5 C 864.833,199.5 866.167,199.5 867.5,199.5C 867.5,200.833 867.5,202.167 867.5,203.5C 866.167,203.5 864.833,203.5 863.5,203.5C 863.5,202.167 863.5,200.833 863.5,199.5 Z"/></g>
<g><path style="opacity:0.008" fill="#8080ff" d="M 1459.5,203.5 C 1460.83,203.5 1462.17,203.5 1463.5,203.5C 1463.5,204.833 1463.5,206.167 1463.5,207.5C 1463.5,206.167 1463.5,204.833 1463.5,203.5C 1462.17,203.5 1460.83,203.5 1459.5,203.5 Z"/></g>
<g><path style="opacity:0.004" fill="#00fffe" d="M 351.5,207.5 C 352.833,207.5 354.167,207.5 355.5,207.5C 355.5,208.833 355.5,210.167 355.5,211.5C 354.167,211.5 352.833,211.5 351.5,211.5C 351.5,210.167 351.5,208.833 351.5,207.5 Z"/></g>
<g><path style="opacity:0.008" fill="#8080ff" d="M 1007.5,207.5 C 1007.5,208.833 1007.5,210.167 1007.5,211.5C 1006.17,211.5 1004.83,211.5 1003.5,211.5C 1003.5,210.167 1003.5,208.833 1003.5,207.5C 1004.83,207.5 1006.17,207.5 1007.5,207.5 Z"/></g>
<g><path style="opacity:0.008" fill="#8080ff" d="M 23.5,219.5 C 24.8333,219.5 26.1667,219.5 27.5,219.5C 27.5,220.833 27.5,222.167 27.5,223.5C 26.1667,223.5 24.8333,223.5 23.5,223.5C 23.5,222.167 23.5,220.833 23.5,219.5 Z"/></g>
<g><path style="opacity:0.004" fill="#00fffe" d="M 187.5,219.5 C 187.5,220.833 187.5,222.167 187.5,223.5C 186.167,223.5 184.833,223.5 183.5,223.5C 183.5,222.167 183.5,220.833 183.5,219.5C 184.833,219.5 186.167,219.5 187.5,219.5 Z"/></g>
<g><path style="opacity:0.008" fill="#8080ff" d="M 1003.5,219.5 C 1003.5,220.833 1003.5,222.167 1003.5,223.5C 1002.17,223.5 1000.83,223.5 999.5,223.5C 999.5,222.167 999.5,220.833 999.5,219.5C 1000.83,219.5 1002.17,219.5 1003.5,219.5 Z"/></g>
<g><path style="opacity:0.008" fill="#8080ff" d="M 1219.5,219.5 C 1220.83,219.5 1222.17,219.5 1223.5,219.5C 1223.5,222.167 1223.5,224.833 1223.5,227.5C 1222.17,227.5 1220.83,227.5 1219.5,227.5C 1219.5,224.833 1219.5,222.167 1219.5,219.5 Z"/></g>
<g><path style="opacity:0.004" fill="#00fffe" d="M 139.5,227.5 C 140.833,227.5 142.167,227.5 143.5,227.5C 143.5,228.833 143.5,230.167 143.5,231.5C 143.5,230.167 143.5,228.833 143.5,227.5C 142.167,227.5 140.833,227.5 139.5,227.5 Z"/></g>
<g><path style="opacity:0.004" fill="#00fffe" d="M 155.5,227.5 C 155.5,228.833 155.5,230.167 155.5,231.5C 154.167,231.5 152.833,231.5 151.5,231.5C 151.5,230.167 151.5,228.833 151.5,227.5C 152.833,227.5 154.167,227.5 155.5,227.5 Z"/></g>
<g><path style="opacity:0.008" fill="#8080ff" d="M 375.5,231.5 C 376.833,231.5 378.167,231.5 379.5,231.5C 379.5,232.833 379.5,234.167 379.5,235.5C 378.167,235.5 376.833,235.5 375.5,235.5C 375.5,234.167 375.5,232.833 375.5,231.5 Z"/></g>
<g><path style="opacity:0.004" fill="#00fffe" d="M 903.5,239.5 C 903.5,240.833 903.5,242.167 903.5,243.5C 902.167,243.5 900.833,243.5 899.5,243.5C 899.5,242.167 899.5,240.833 899.5,239.5C 900.833,239.5 902.167,239.5 903.5,239.5 Z"/></g>
<g><path style="opacity:0.004" fill="#00fffe" d="M 251.5,243.5 C 251.5,244.833 251.5,246.167 251.5,247.5C 250.167,247.5 248.833,247.5 247.5,247.5C 247.5,246.167 247.5,244.833 247.5,243.5C 248.833,243.5 250.167,243.5 251.5,243.5 Z"/></g>
<g><path style="opacity:0.004" fill="#00fffe" d="M 439.5,243.5 C 439.5,244.833 439.5,246.167 439.5,247.5C 438.167,247.5 436.833,247.5 435.5,247.5C 435.5,246.167 435.5,244.833 435.5,243.5C 436.833,243.5 438.167,243.5 439.5,243.5 Z"/></g>
<g><path style="opacity:0.004" fill="#00fffe" d="M 247.5,247.5 C 247.5,248.833 247.5,250.167 247.5,251.5C 246.167,251.5 244.833,251.5 243.5,251.5C 243.5,250.167 243.5,248.833 243.5,247.5C 244.833,247.5 246.167,247.5 247.5,247.5 Z"/></g>
</svg>
